<?xml version="1.0" encoding="iso-8859-1"?>
<!-- Generator: Adobe Illustrator 16.0.0, SVG Export Plug-In . SVG Version: 6.00 Build 0)  -->
<!DOCTYPE svg PUBLIC "-//W3C//DTD SVG 1.1//EN" "http://www.w3.org/Graphics/SVG/1.1/DTD/svg11.dtd">
<svg version="1.1" id="Capa_1" xmlns="http://www.w3.org/2000/svg" xmlns:xlink="http://www.w3.org/1999/xlink" x="0px" y="0px"
	 width="594.897px" height="594.896px" viewBox="0 0 594.897 594.896" style="enable-background:new 0 0 594.897 594.896;"
	 xml:space="preserve">
<g>
	<g>
		<path style="fill:#FFFFFF;" d="M7.022,487.51c-0.565,5.727,1.198,11.439,4.892,15.852l69.79,83.363c4.237,5.061,10.314,7.672,16.435,7.672
			c4.851,0,9.729-1.641,13.739-4.996c9.071-7.594,10.268-21.104,2.674-30.176l-55.764-66.607l32.342-26l56.311,67.262
			c4.237,5.062,10.314,7.672,16.436,7.672c4.851,0,9.729-1.641,13.739-4.996c9.071-7.594,10.268-21.104,2.674-30.174l-55.764-66.611
			l198.802-159.813l58.023,69.309c11.157,13.326,27.527,20.971,44.913,20.971c13.291,0,26.318-4.588,36.683-12.92l103.153-82.923
			c6.23-5.008,11.286-11.119,15.027-18.162c3.599-6.775,5.806-14.086,6.561-21.73c0.754-7.645,0.018-15.247-2.188-22.595
			c-2.292-7.638-6.057-14.619-11.188-20.749L432.256,21.471C421.1,8.144,404.73,0.5,387.344,0.5
			c-13.292,0-26.319,4.589-36.684,12.92L247.508,96.343c-6.23,5.008-11.286,11.119-15.028,18.162
			c-3.599,6.775-5.807,14.087-6.561,21.731c-0.754,7.645-0.018,15.247,2.188,22.594c2.292,7.639,6.057,14.62,11.188,20.749
			l56.527,67.522L14.918,472.918C10.433,476.523,7.586,481.781,7.022,487.51z M272.144,152.08
			c-5.653-6.752-4.659-16.83,2.205-22.347L377.5,46.81c2.902-2.333,6.383-3.469,9.843-3.469c4.497,0,8.959,1.92,12.064,5.63
			l142.058,169.686c5.652,6.752,4.659,16.83-2.205,22.348l-103.152,82.923c-2.901,2.332-6.383,3.469-9.843,3.469
			c-4.497,0-8.959-1.92-12.064-5.631L272.144,152.08z"/>
		<path style="fill:#FFFFFF;" d="M98.139,594.896c-6.511,0-12.641-2.861-16.818-7.851l-69.79-83.363c-3.756-4.486-5.581-10.399-5.006-16.222
			c0.574-5.823,3.519-11.266,8.08-14.933l280.507-225.497l-56.2-67.131c-5.175-6.181-8.972-13.222-11.284-20.926
			c-2.225-7.411-2.967-15.078-2.206-22.787c0.76-7.709,2.986-15.083,6.617-21.917c3.773-7.103,8.873-13.266,15.156-18.317
			L350.347,13.03C360.8,4.627,373.94,0,387.344,0c17.534,0,34.044,7.709,45.296,21.15l142.058,169.687
			c5.176,6.183,8.972,13.224,11.282,20.926c2.225,7.411,2.967,15.078,2.207,22.788c-0.762,7.709-2.988,15.083-6.617,21.916
			c-3.773,7.104-8.872,13.267-15.155,18.317l-103.153,82.923c-10.452,8.402-23.591,13.03-36.996,13.03
			c-17.533,0-34.043-7.709-45.297-21.149l-57.708-68.934L125.237,439.84l55.437,66.22c3.758,4.489,5.543,10.174,5.027,16.006
			c-0.517,5.832-3.274,11.114-7.764,14.873c-3.939,3.297-8.933,5.112-14.06,5.112c-6.513,0-12.643-2.861-16.819-7.851
			l-55.996-66.886L59.5,492.688l55.436,66.216c7.758,9.27,6.531,23.122-2.737,30.881
			C108.259,593.081,103.265,594.896,98.139,594.896z M387.344,1c-13.178,0-26.094,4.549-36.37,12.81L247.821,96.732
			c-6.177,4.966-11.19,11.024-14.9,18.007c-3.568,6.718-5.757,13.967-6.504,21.546c-0.748,7.579-0.018,15.116,2.169,22.402
			c2.273,7.573,6.005,14.495,11.093,20.572l56.855,67.914l-0.397,0.319L15.231,473.308c-4.354,3.499-7.165,8.693-7.712,14.251
			c-0.548,5.558,1.193,11.2,4.778,15.481l69.79,83.363c3.987,4.762,9.837,7.493,16.052,7.493c4.892,0,9.657-1.733,13.418-4.88
			c8.845-7.404,10.016-20.625,2.612-29.471l-56.091-66.999L91.2,465.92l56.625,67.638c3.986,4.762,9.836,7.493,16.052,7.493
			c4.893,0,9.658-1.733,13.418-4.88c4.285-3.587,6.916-8.627,7.409-14.193s-1.21-10.991-4.797-15.275l-56.092-67.003l0.398-0.319
			l199.184-160.12l0.315,0.376l58.023,69.309c11.062,13.214,27.293,20.792,44.529,20.792c13.178,0,26.094-4.549,36.369-12.81
			l103.153-82.923c6.177-4.965,11.189-11.023,14.899-18.007c3.567-6.717,5.756-13.966,6.504-21.545
			c0.748-7.579,0.019-15.116-2.168-22.402c-2.272-7.571-6.004-14.492-11.093-20.571L431.873,21.792
			C420.812,8.578,404.582,1,387.344,1z M426.265,327.896c-4.821,0-9.358-2.117-12.448-5.81L271.761,152.4
			c-2.821-3.369-4.137-7.633-3.706-12.006c0.431-4.373,2.555-8.298,5.98-11.051L377.187,46.42c2.872-2.308,6.479-3.579,10.156-3.579
			c4.82,0,9.357,2.118,12.448,5.81l142.058,169.686c2.82,3.37,4.137,7.635,3.705,12.008s-2.556,8.297-5.98,11.05l-103.152,82.923
			C433.549,326.625,429.943,327.896,426.265,327.896z M387.343,43.841c-3.45,0-6.835,1.193-9.529,3.358l-103.151,82.923
			c-3.214,2.583-5.208,6.267-5.612,10.37s0.83,8.105,3.477,11.267l142.057,169.686c2.899,3.465,7.156,5.452,11.681,5.452
			c3.451,0,6.835-1.192,9.529-3.358l103.152-82.923c3.214-2.583,5.207-6.266,5.612-10.369c0.405-4.104-0.83-8.105-3.478-11.268
			L399.024,49.292C396.125,45.828,391.867,43.841,387.343,43.841z"/>
	</g>
</g>

</svg>
