<?xml version="1.0" encoding="iso-8859-1"?>
<!-- Generator: Adobe Illustrator 16.0.0, SVG Export Plug-In . SVG Version: 6.00 Build 0)  -->
<!DOCTYPE svg PUBLIC "-//W3C//DTD SVG 1.1//EN" "http://www.w3.org/Graphics/SVG/1.1/DTD/svg11.dtd">
<svg version="1.1" id="Capa_1" xmlns="http://www.w3.org/2000/svg" xmlns:xlink="http://www.w3.org/1999/xlink" x="0px" y="0px"
	 width="313.45px" height="313.45px" viewBox="0 0 313.45 313.45" style="enable-background:new 0 0 313.45 313.45;"
	 xml:space="preserve">
<g>
	<path fill = '#FFFFFF' d="M267.592,45.853C238.019,16.282,198.65,0,156.719,0C114.791,0,75.414,16.282,45.85,45.853
		c-61.132,61.125-61.132,160.604,0,221.738c29.571,29.574,68.941,45.854,110.87,45.859c0.009,0,0.009,0,0.021,0
		c41.91,0,81.284-16.279,110.852-45.859c29.573-29.567,45.858-68.94,45.858-110.863C313.45,114.806,297.165,75.42,267.592,45.853z
		 M163.898,235.009h-18.916v-21.431h18.916V235.009z M198.675,131.886c-1.903,5.191-4.498,9.791-7.8,13.787
		c-3.015,3.996-6.558,8.104-10.629,12.316c-4.005,4.284-8.082,9.094-12.226,14.426c-1.472,2.318-2.63,4.774-3.465,7.368
		c-0.985,5.896-1.336,11.997-1.06,18.321h-18.507c-0.141-10.659,0.88-18.813,3.044-24.434c2.171-5.604,6.825-12.274,13.971-19.993
		c2.876-3.3,5.68-6.53,8.4-9.689c3.855-4.63,6.797-9.088,8.833-13.375c2.035-4.348,3.051-9.47,3.051-15.366
		c0-6.738-1.598-12.845-4.792-18.318c-3.477-5.405-9.235-8.208-17.258-8.416c-11.073,0.348-18.348,4.107-21.828,11.262
		c-1.846,3.297-3.095,7.017-3.729,11.157c-0.853,4.353-1.27,8.809-1.27,13.372h-18.065c-0.562-13.577,2.501-25.298,9.184-35.17
		c6.53-10.079,17.555-15.252,33.062-15.54c13.28,0.141,23.818,3.744,31.612,10.809c7.854,7.134,11.859,16.996,11.998,29.591
		C201.203,121.008,200.356,126.974,198.675,131.886z"/>
</g>

</svg>
