<?xml version="1.0" encoding="iso-8859-1"?>
<!-- Generator: Adobe Illustrator 18.1.1, SVG Export Plug-In . SVG Version: 6.00 Build 0)  -->
<svg version="1.1" id="Capa_1" xmlns="http://www.w3.org/2000/svg" xmlns:xlink="http://www.w3.org/1999/xlink" x="0px" y="0px"
	 viewBox="0 0 201.844 201.844" style="enable-background:new 0 0 201.844 201.844;" xml:space="preserve">
<g>
	<g>
		<path style="fill:#FFFFFF;" d="M92.243,128.466c7.841,0,14.394-1.288,20.832-4.681l-1.872-5.035
			c-4.799,2.684-11.009,4.094-17.68,4.094c-17.325,0-30.084-12.054-30.084-31.612c0-23.76,16.044-38.873,35.123-38.873
			c18.145,0,28.33,12.175,28.33,29.153c0,13.585-6.66,21.545-12.641,21.43c-3.854-0.118-5.268-4.212-3.507-13.12l3.983-21.176
			c-3.046-1.41-7.498-2.462-12.533-2.462c-16.273,0-27.747,13.231-27.747,27.747c0,9.244,5.851,14.745,12.644,14.745
			c7.022,0,12.404-3.389,16.509-10.304h0.469c-0.358,7.151,3.976,10.304,8.668,10.304c11.005,0,20.832-10.304,20.832-27.854
			c0-19.555-13.693-33.845-34.074-33.845c-25.993,0-42.728,20.843-42.728,44.961C56.762,114.419,73.035,128.466,92.243,128.466z
			 M104.182,86.433c-1.288,7.258-7.498,15.926-14.29,15.926c-5.146,0-7.727-3.747-7.727-8.893c0-11.363,8.31-21.083,18.614-21.083
			c2.698,0,4.692,0.465,5.859,0.823L104.182,86.433z"/>
		<path style="fill:#FFFFFF;" d="M184.774,18.81c0-3.522-2.87-6.392-6.388-6.392H165.32c-0.236,0-0.487,0.018-0.737,0.054V0H17.23
			v170.729c-0.161,1.582-1.374,15.801,6.499,24.583c3.876,4.334,9.241,6.531,15.926,6.531h118.532c3.522,0,6.392-2.87,6.392-6.392
			v-14.104l-125.528-0.097v5.655h119.874v8.55c0,0.415-0.322,0.737-0.737,0.737H39.655c-5.007,0-8.947-1.564-11.71-4.635
			c-5.429-6.045-5.307-16.434-5.125-19.591h141.758v-15.883c0.251,0.036,0.501,0.057,0.737,0.057h13.066
			c3.518,0,6.388-2.87,6.388-6.392v-37.757c0-1.643-0.637-3.207-1.754-4.388c1.12-1.17,1.754-2.745,1.754-4.377V65.472
			c0-1.678-0.659-3.271-1.818-4.452c1.16-1.181,1.818-2.774,1.818-4.463V18.81H184.774z M158.924,166.313H23.622h-0.455h-0.229
			L22.885,5.658h136.039V166.313z M179.12,149.746c0,0.401-0.326,0.737-0.734,0.737H165.32c-0.408,0-0.737-0.336-0.737-0.737
			v-37.757c0-0.408,0.329-0.734,0.737-0.734h13.066c0.408,0,0.734,0.326,0.734,0.734V149.746z M179.12,103.228
			c0,0.397-0.326,0.737-0.734,0.737H165.32c-0.408,0-0.737-0.34-0.737-0.737V65.472c0-0.408,0.329-0.737,0.737-0.737h13.066
			c0.408,0,0.734,0.326,0.734,0.737V103.228z M179.12,56.557c0,0.412-0.326,0.744-0.734,0.744H165.32
			c-0.408,0-0.737-0.336-0.737-0.744V18.81c0-0.412,0.329-0.737,0.737-0.737h13.066c0.408,0,0.734,0.322,0.734,0.737V56.557z"/>
	</g>
</g>
</svg>
