<svg width="48" height="48" viewBox="0 0 48 48" fill="none" xmlns="http://www.w3.org/2000/svg">
<g clip-path="url(#clip0_8289_728)">
<rect width="48" height="48" rx="13" fill="#D7FF00"/>
<path d="M19.643 9.2549L17.0379 16.648C17.0233 16.6894 17.0173 16.7333 17.0202 16.7771C17.0232 16.821 17.035 16.8637 17.055 16.9028L19.489 21.6829L12.802 25.4719C12.7827 25.4831 12.7613 25.4902 12.7391 25.4927C12.7169 25.4952 12.6945 25.4929 12.6732 25.4863C12.6519 25.4798 12.6322 25.4689 12.6153 25.4544C12.5984 25.4398 12.5847 25.422 12.575 25.4019L11.1289 22.3899C11.1045 22.3396 11.0937 22.2838 11.0974 22.228C11.1011 22.1723 11.1191 22.1187 11.1499 22.072L19.5869 9.22487C19.5919 9.21969 19.5985 9.21622 19.6056 9.2151C19.6127 9.21398 19.62 9.21537 19.6263 9.21877C19.6327 9.22216 19.6377 9.22737 19.6407 9.2339C19.6437 9.24044 19.6445 9.24787 19.643 9.2549Z" fill="#1E2433"/>
<path d="M32.7373 19.1572L38.2769 30.957C38.3053 31.0187 38.3143 31.0879 38.3018 31.1547C38.2892 31.2215 38.2559 31.2828 38.207 31.33L23.644 45.394C23.6212 45.4162 23.5924 45.4316 23.561 45.4374C23.5296 45.4433 23.4972 45.4397 23.4678 45.4272C23.4384 45.4147 23.413 45.3938 23.3955 45.3671C23.378 45.3404 23.369 45.3092 23.3691 45.2773V32.3451L32.5513 23.4824C32.583 23.4531 32.6083 23.4175 32.6255 23.3779C32.6427 23.3383 32.6512 23.2956 32.6509 23.2524L32.6772 19.1703C32.6778 19.1634 32.6805 19.157 32.6851 19.1518C32.6896 19.1466 32.6954 19.1425 32.7022 19.141C32.7089 19.1396 32.7159 19.1406 32.7222 19.1435C32.7285 19.1464 32.734 19.1511 32.7373 19.1572Z" fill="#1E2433"/>
<path d="M19.4871 21.6841L11.54 23.252L12.5731 25.4C12.5828 25.42 12.5966 25.4377 12.6135 25.4522C12.6304 25.4667 12.6501 25.4774 12.6714 25.4839C12.6927 25.4905 12.7151 25.4927 12.7372 25.4903C12.7593 25.4879 12.7807 25.4808 12.8 25.4698L19.488 21.6832L19.4871 21.6841Z" fill="black"/>
<path d="M17.0189 16.734L11.1108 22.148C11.1198 22.1209 11.1323 22.0951 11.1478 22.0711L19.5848 9.22397C19.5877 9.21939 19.5917 9.21585 19.5964 9.21323C19.6012 9.2106 19.6065 9.20909 19.6119 9.20908C19.6172 9.20885 19.6225 9.20988 19.6273 9.21225C19.6321 9.21462 19.6363 9.21812 19.6393 9.2225C19.6424 9.22688 19.6444 9.23207 19.645 9.2374C19.6456 9.24272 19.6449 9.24806 19.6429 9.25302L17.0369 16.6461C17.0268 16.6745 17.0208 16.704 17.0189 16.734Z" fill="#343B4E"/>
<path d="M28.6782 27.222L23.3672 39.6439V32.3441L28.6782 27.222Z" fill="black"/>
<path d="M38.3008 31.1593L32.6016 23.421C32.6318 23.3716 32.6479 23.3149 32.6484 23.257L32.6709 19.171C32.6712 19.1667 32.6729 19.1627 32.6748 19.1588C32.6767 19.1549 32.6794 19.1515 32.6826 19.1486C32.6859 19.1457 32.6893 19.1432 32.6934 19.1418C32.6975 19.1403 32.7017 19.14 32.7061 19.1403C32.7123 19.1403 32.7185 19.1421 32.7236 19.1457C32.7288 19.1492 32.7331 19.1544 32.7354 19.1603L38.2725 30.9601C38.3056 31.0209 38.3152 31.0917 38.3008 31.1593Z" fill="#343B4E"/>
<path d="M23.49 3.273L29.64 18.338C29.6566 18.3776 29.6652 18.4201 29.6652 18.463C29.6652 18.5059 29.6566 18.5484 29.64 18.588L19.706 41.829C19.6956 41.8532 19.6795 41.8746 19.659 41.8913C19.6385 41.9079 19.6143 41.9193 19.5885 41.9245C19.5626 41.9297 19.5358 41.9286 19.5105 41.9212C19.4852 41.9138 19.462 41.9003 19.443 41.882L10.305 33.056C10.2483 33.0013 10.2133 32.9278 10.2067 32.8493C10.2001 32.7707 10.2223 32.6924 10.2691 32.629L23.3021 14.973C23.343 14.917 23.365 14.8494 23.365 14.78V3.29302C23.3661 3.27839 23.372 3.26453 23.3819 3.25371C23.3919 3.2429 23.4051 3.23574 23.4196 3.23342C23.4341 3.2311 23.4489 3.23377 23.4617 3.24096C23.4745 3.24814 23.4845 3.25942 23.49 3.273Z" fill="url(#paint0_linear_8289_728)"/>
<path d="M23.3501 14.8731L29.6631 18.4431C29.6622 18.406 29.6544 18.3693 29.6401 18.3351L23.4893 3.27007C23.485 3.2577 23.4766 3.24702 23.4658 3.23964C23.455 3.23226 23.4423 3.22854 23.4292 3.22905C23.4207 3.22905 23.4121 3.23075 23.4043 3.23402C23.3965 3.2373 23.3893 3.2421 23.3833 3.24815C23.3773 3.2542 23.3728 3.26136 23.3696 3.26924C23.3665 3.27712 23.3651 3.28556 23.3652 3.29405V14.776C23.3647 14.8089 23.3596 14.8416 23.3501 14.8731Z" fill="#343B4E"/>
</g>
<defs>
<linearGradient id="paint0_linear_8289_728" x1="23.4771" y1="8.72731" x2="10.3262" y2="37.0615" gradientUnits="userSpaceOnUse">
<stop/>
<stop offset="0.386" stop-color="#1E2433"/>
<stop offset="1" stop-color="#343B4E"/>
</linearGradient>
<clipPath id="clip0_8289_728">
<rect width="48" height="48" fill="white"/>
</clipPath>
</defs>
</svg>
